<?xml version="1.0" standalone="no"?><!DOCTYPE svg PUBLIC "-//W3C//DTD SVG 1.1//EN" "http://www.w3.org/Graphics/SVG/1.1/DTD/svg11.dtd"><svg t="1683713825509" class="icon" viewBox="0 0 1024 1024" version="1.1" xmlns="http://www.w3.org/2000/svg" p-id="4323" xmlns:xlink="http://www.w3.org/1999/xlink" width="200" height="200"><path d="M819.2 85.333333H204.8a68.266667 68.266667 0 0 0-68.266667 68.266667v716.8a68.266667 68.266667 0 0 0 68.266667 68.266667h614.4a68.266667 68.266667 0 0 0 68.266667-68.266667V153.6a68.266667 68.266667 0 0 0-68.266667-68.266667zM204.8 153.6h614.4v716.8H204.8V153.6z" fill="#ffffff" p-id="4324"></path><path d="M655.36 247.466667a34.133333 34.133333 0 0 1 2.56 68.181333l-2.56 0.085333H368.64a34.133333 34.133333 0 0 1-2.56-68.181333l2.56-0.085333h286.72z" fill="#ffffff" p-id="4325"></path><path d="M546.133333 426.666667v136.533333h136.533334v68.266667h-136.533334v136.533333h-68.266666v-136.533333h-136.533334v-68.266667h136.533334v-136.533333h68.266666z" fill="#ffffff" p-id="4326"></path></svg>